<svg xmlns="http://www.w3.org/2000/svg" xmlns:xlink="http://www.w3.org/1999/xlink" width="500" zoomAndPan="magnify" viewBox="0 0 375 374.999991" height="500" preserveAspectRatio="xMidYMid meet" version="1.0"><defs><clipPath id="90b22915f0"><path d="M 9.347656 8.765625 L 367 8.765625 L 367 364.492188 L 9.347656 364.492188 Z M 9.347656 8.765625 " clip-rule="nonzero"/></clipPath><clipPath id="8c4c723f50"><path d="M 65.597656 8.765625 L 310.566406 8.765625 C 341.632812 8.765625 366.816406 33.949219 366.816406 65.015625 L 366.816406 308.242188 C 366.816406 339.308594 341.632812 364.492188 310.566406 364.492188 L 65.597656 364.492188 C 34.53125 364.492188 9.347656 339.308594 9.347656 308.242188 L 9.347656 65.015625 C 9.347656 33.949219 34.53125 8.765625 65.597656 8.765625 Z M 65.597656 8.765625 " clip-rule="nonzero"/></clipPath><clipPath id="28e381a969"><path d="M 0.347656 0.765625 L 357.960938 0.765625 L 357.960938 356.492188 L 0.347656 356.492188 Z M 0.347656 0.765625 " clip-rule="nonzero"/></clipPath><clipPath id="d431e9edcf"><path d="M 56.597656 0.765625 L 301.566406 0.765625 C 332.632812 0.765625 357.816406 25.949219 357.816406 57.015625 L 357.816406 300.242188 C 357.816406 331.308594 332.632812 356.492188 301.566406 356.492188 L 56.597656 356.492188 C 25.53125 356.492188 0.347656 331.308594 0.347656 300.242188 L 0.347656 57.015625 C 0.347656 25.949219 25.53125 0.765625 56.597656 0.765625 Z M 56.597656 0.765625 " clip-rule="nonzero"/></clipPath><clipPath id="c200ca7165"><rect x="0" width="358" y="0" height="357"/></clipPath></defs><rect x="-37.5" width="450" fill="#ffffff" y="-37.499999" height="449.999989" fill-opacity="1"/><rect x="-37.5" width="450" fill="#fee0b3" y="-37.499999" height="449.999989" fill-opacity="1"/><g clip-path="url(#90b22915f0)"><g clip-path="url(#8c4c723f50)"><g transform="matrix(1, 0, 0, 1, 9, 8)"><g clip-path="url(#c200ca7165)"><g clip-path="url(#28e381a969)"><g clip-path="url(#d431e9edcf)"><path fill="#fc9810" d="M 0.347656 0.765625 L 357.464844 0.765625 L 357.464844 356.492188 L 0.347656 356.492188 Z M 0.347656 0.765625 " fill-opacity="1" fill-rule="nonzero"/></g></g></g></g></g></g><path fill="#0d1b27" d="M 115.457031 224.554688 C 107.515625 227.675781 92.957031 237.128906 88.296875 242.019531 C 79.433594 251.34375 81.535156 265.195312 92.664062 270.699219 C 104.839844 276.730469 117.539062 268.507812 118.375 253.757812 C 118.917969 244.105469 117.246094 234.582031 115.457031 224.554688 Z M 115.457031 224.554688 " fill-opacity="1" fill-rule="nonzero"/><path fill="#0d1b27" d="M 183.570312 223.347656 C 173.316406 230.171875 163.476562 234.863281 155.835938 242.714844 C 150.734375 247.960938 149.667969 256.71875 153.050781 263.292969 C 156.300781 269.625 164.160156 273.449219 171.746094 272.402344 C 178.648438 271.445312 184.316406 265.777344 185.722656 258.167969 C 187.835938 246.8125 185.210938 235.789062 183.570312 223.355469 Z M 183.570312 223.347656 " fill-opacity="1" fill-rule="nonzero"/><path fill="#0d1b27" d="M 251.875 223.566406 C 241.871094 229.464844 232.957031 234.609375 225.25 241.507812 C 219 247.09375 217.480469 254.867188 220.792969 262.316406 C 223.75 268.980469 231.589844 273.386719 238.863281 272.484375 C 246.863281 271.496094 252.5 266.160156 254.007812 257.683594 C 255.992188 246.570312 253.171875 235.75 251.875 223.558594 Z M 251.875 223.566406 " fill-opacity="1" fill-rule="nonzero"/><path fill="#0d1b27" d="M 213.597656 282.792969 C 205.578125 287.601562 197.558594 292.425781 190.605469 298.726562 C 183.628906 305.039062 183.277344 316.40625 189.585938 323.351562 C 194.730469 329.007812 201.996094 330.769531 209.117188 328.070312 C 216.828125 325.152344 220.671875 318.40625 220.691406 304.65625 C 220.148438 300.15625 219.140625 292.617188 218.375 285.046875 C 217.992188 281.300781 216.484375 281.058594 213.605469 282.792969 Z M 213.597656 282.792969 " fill-opacity="1" fill-rule="nonzero"/><path fill="#0d1b27" d="M 145.886719 282.53125 C 137.019531 287.886719 127.875 292.917969 120.910156 300.820312 C 116.179688 306.195312 115.859375 312.558594 118.605469 318.851562 C 121.242188 324.882812 125.859375 328.675781 132.804688 329.070312 C 145.222656 329.773438 152.515625 321.660156 152.535156 304.90625 C 151.902344 299.644531 151.019531 292.3125 150.164062 284.984375 C 149.832031 282.1875 148.792969 280.769531 145.875 282.53125 Z M 145.886719 282.53125 " fill-opacity="1" fill-rule="nonzero"/><path fill="#0d1b27" d="M 266.746094 141.976562 C 263.015625 141.53125 261.925781 139.75 260.761719 136.75 C 251.933594 114.160156 235.996094 103.640625 212.097656 104.917969 C 207.410156 105.171875 204.710938 104.0625 201.722656 100.15625 C 188.589844 82.941406 171.496094 73.328125 149.207031 76.246094 C 124.996094 79.417969 109.550781 93.664062 101.167969 116.082031 C 99.917969 119.433594 98.78125 121.257812 94.648438 121.476562 C 67.417969 122.917969 49.65625 143.234375 50.484375 171.53125 C 51.207031 196.636719 71.625 215.925781 97.59375 215.957031 C 124.792969 215.996094 151.984375 215.957031 179.183594 215.957031 C 206.875 215.957031 234.566406 216.066406 262.257812 215.917969 C 281.578125 215.816406 297.359375 201.179688 298.445312 182.757812 C 299.773438 160.367188 287.566406 144.441406 266.746094 141.976562 Z M 266.746094 141.976562 " fill-opacity="1" fill-rule="nonzero"/><path fill="#0d1b27" d="M 335.304688 128.484375 C 333.269531 109.871094 323.460938 95.738281 305.820312 89.203125 C 298.707031 86.566406 296.148438 82.8125 293.824219 76.5 C 283.230469 47.699219 245.9375 37.488281 222.742188 56.65625 C 217.140625 61.289062 214.292969 68.847656 208.738281 72.59375 C 203.222656 76.316406 194.902344 72.109375 186.628906 75.078125 C 194.699219 80.113281 200.867188 85.429688 205.847656 91.882812 C 208.242188 94.992188 210.6875 96 214.53125 95.9375 C 238.832031 95.554688 255.667969 107.34375 266.433594 128.597656 C 267.550781 130.808594 268.226562 132.894531 271.195312 133.589844 C 292.910156 138.683594 304.027344 153.257812 306.875 174.683594 C 307.511719 179.445312 309.082031 179.304688 312.300781 177.210938 C 330.03125 165.710938 337.558594 149.121094 335.292969 128.476562 Z M 335.304688 128.484375 " fill-opacity="1" fill-rule="nonzero"/></svg>