<svg xmlns="http://www.w3.org/2000/svg" xmlns:xlink="http://www.w3.org/1999/xlink" width="1024" zoomAndPan="magnify" viewBox="0 0 768 767.999994" height="1024" preserveAspectRatio="xMidYMid meet" version="1.2"><defs><clipPath id="c64c87dd12"><path d="M 38.964844 38.964844 L 727.90625 38.964844 L 727.90625 727.90625 L 38.964844 727.90625 Z M 38.964844 38.964844 "/></clipPath><clipPath id="4058e26236"><path d="M 383.433594 38.964844 C 193.1875 38.964844 38.964844 193.1875 38.964844 383.433594 C 38.964844 573.679688 193.1875 727.90625 383.433594 727.90625 C 573.679688 727.90625 727.90625 573.679688 727.90625 383.433594 C 727.90625 193.1875 573.679688 38.964844 383.433594 38.964844 Z M 383.433594 38.964844 "/></clipPath><clipPath id="e50f3cf63e"><path d="M 76.800781 76.234375 L 691.050781 76.234375 L 691.050781 690.484375 L 76.800781 690.484375 Z M 76.800781 76.234375 "/></clipPath><clipPath id="353dd7a49f"><path d="M 76.800781 151.234375 L 76.800781 615.636719 C 76.800781 657.054688 110.378906 690.636719 151.800781 690.636719 L 616.199219 690.636719 C 657.621094 690.636719 691.199219 657.054688 691.199219 615.636719 L 691.199219 151.234375 C 691.199219 109.8125 657.621094 76.234375 616.199219 76.234375 L 151.800781 76.234375 C 110.378906 76.234375 76.800781 109.8125 76.800781 151.234375 Z M 76.800781 151.234375 "/></clipPath><clipPath id="a1a116b61b"><path d="M 342 192 L 426 192 L 426 575 L 342 575 Z M 342 192 "/></clipPath><clipPath id="d3edea9223"><path d="M 76.800781 151.234375 L 76.800781 615.636719 C 76.800781 657.054688 110.378906 690.636719 151.800781 690.636719 L 616.199219 690.636719 C 657.621094 690.636719 691.199219 657.054688 691.199219 615.636719 L 691.199219 151.234375 C 691.199219 109.8125 657.621094 76.234375 616.199219 76.234375 L 151.800781 76.234375 C 110.378906 76.234375 76.800781 109.8125 76.800781 151.234375 Z M 76.800781 151.234375 "/></clipPath></defs><g id="2b3196ca6b"><rect x="0" width="768" y="0" height="767.999994" style="fill:#ffffff;fill-opacity:1;stroke:none;"/><rect x="0" width="768" y="0" height="767.999994" style="fill:#fff9c4;fill-opacity:1;stroke:none;"/><g clip-rule="nonzero" clip-path="url(#c64c87dd12)"><g clip-rule="nonzero" clip-path="url(#4058e26236)"><path style=" stroke:none;fill-rule:nonzero;fill:#000000;fill-opacity:1;" d="M 38.964844 38.964844 L 727.90625 38.964844 L 727.90625 727.90625 L 38.964844 727.90625 Z M 38.964844 38.964844 "/></g></g><g clip-rule="nonzero" clip-path="url(#e50f3cf63e)"><g clip-rule="nonzero" clip-path="url(#353dd7a49f)"><path style=" stroke:none;fill-rule:nonzero;fill:#f2ff00;fill-opacity:1;" d="M 691.152344 383.414062 C 691.152344 388.4375 691.03125 393.464844 690.785156 398.484375 C 690.539062 403.503906 690.167969 408.519531 689.675781 413.519531 C 689.183594 418.523438 688.566406 423.511719 687.828125 428.484375 C 687.089844 433.457031 686.230469 438.410156 685.25 443.339844 C 684.269531 448.269531 683.167969 453.171875 681.949219 458.050781 C 680.726562 462.925781 679.386719 467.769531 677.925781 472.582031 C 676.46875 477.390625 674.890625 482.164062 673.199219 486.894531 C 671.503906 491.628906 669.695312 496.320312 667.773438 500.964844 C 665.847656 505.609375 663.8125 510.203125 661.660156 514.746094 C 659.511719 519.292969 657.253906 523.78125 654.882812 528.214844 C 652.511719 532.648438 650.035156 537.019531 647.453125 541.332031 C 644.867188 545.644531 642.179688 549.890625 639.386719 554.070312 C 636.59375 558.25 633.699219 562.359375 630.703125 566.398438 C 627.710938 570.433594 624.617188 574.398438 621.429688 578.28125 C 618.238281 582.167969 614.957031 585.972656 611.582031 589.699219 C 608.203125 593.425781 604.738281 597.0625 601.183594 600.617188 C 597.628906 604.171875 593.988281 607.636719 590.265625 611.015625 C 586.539062 614.390625 582.734375 617.671875 578.847656 620.863281 C 574.960938 624.050781 571 627.144531 566.960938 630.136719 C 562.925781 633.132812 558.816406 636.027344 554.636719 638.820312 C 550.457031 641.613281 546.210938 644.300781 541.898438 646.886719 C 537.585938 649.46875 533.214844 651.949219 528.78125 654.316406 C 524.347656 656.6875 519.855469 658.945312 515.3125 661.097656 C 510.769531 663.246094 506.171875 665.28125 501.527344 667.207031 C 496.882812 669.128906 492.195312 670.9375 487.460938 672.632812 C 482.730469 674.324219 477.957031 675.902344 473.144531 677.359375 C 468.335938 678.820312 463.492188 680.160156 458.617188 681.382812 C 453.738281 682.605469 448.835938 683.703125 443.90625 684.6875 C 438.972656 685.667969 434.023438 686.527344 429.050781 687.261719 C 424.078125 688 419.089844 688.617188 414.085938 689.109375 C 409.082031 689.601562 404.070312 689.972656 399.050781 690.21875 C 394.027344 690.464844 389.003906 690.589844 383.976562 690.589844 C 378.949219 690.589844 373.925781 690.464844 368.90625 690.21875 C 363.882812 689.972656 358.871094 689.601562 353.871094 689.109375 C 348.867188 688.617188 343.878906 688 338.90625 687.261719 C 333.933594 686.527344 328.980469 685.667969 324.050781 684.6875 C 319.121094 683.703125 314.214844 682.605469 309.339844 681.382812 C 304.464844 680.160156 299.621094 678.820312 294.808594 677.363281 C 290 675.902344 285.226562 674.324219 280.492188 672.632812 C 275.757812 670.9375 271.070312 669.128906 266.425781 667.207031 C 261.78125 665.28125 257.1875 663.246094 252.644531 661.097656 C 248.097656 658.945312 243.609375 656.6875 239.175781 654.316406 C 234.742188 651.949219 230.371094 649.46875 226.058594 646.886719 C 221.746094 644.300781 217.5 641.613281 213.320312 638.820312 C 209.140625 636.027344 205.03125 633.132812 200.992188 630.140625 C 196.957031 627.144531 192.992188 624.050781 189.105469 620.863281 C 185.222656 617.671875 181.414062 614.390625 177.691406 611.015625 C 173.964844 607.636719 170.328125 604.171875 166.769531 600.617188 C 163.214844 597.0625 159.75 593.425781 156.375 589.699219 C 153 585.972656 149.714844 582.167969 146.527344 578.28125 C 143.339844 574.398438 140.246094 570.433594 137.25 566.398438 C 134.257812 562.359375 131.363281 558.25 128.570312 554.070312 C 125.777344 549.890625 123.089844 545.644531 120.503906 541.332031 C 117.917969 537.019531 115.441406 532.648438 113.074219 528.214844 C 110.703125 523.78125 108.441406 519.292969 106.292969 514.746094 C 104.144531 510.203125 102.109375 505.609375 100.183594 500.964844 C 98.261719 496.320312 96.453125 491.628906 94.757812 486.894531 C 93.0625 482.164062 91.488281 477.390625 90.027344 472.582031 C 88.570312 467.769531 87.230469 462.925781 86.007812 458.050781 C 84.785156 453.171875 83.683594 448.269531 82.703125 443.339844 C 81.722656 438.410156 80.863281 433.457031 80.125 428.484375 C 79.386719 423.511719 78.773438 418.523438 78.28125 413.519531 C 77.789062 408.519531 77.417969 403.503906 77.171875 398.484375 C 76.925781 393.464844 76.800781 388.4375 76.800781 383.414062 C 76.800781 378.386719 76.925781 373.359375 77.171875 368.339844 C 77.417969 363.320312 77.789062 358.308594 78.28125 353.304688 C 78.773438 348.300781 79.386719 343.3125 80.125 338.339844 C 80.863281 333.367188 81.722656 328.414062 82.703125 323.484375 C 83.683594 318.554688 84.785156 313.652344 86.007812 308.773438 C 87.230469 303.898438 88.570312 299.054688 90.027344 294.242188 C 91.488281 289.433594 93.0625 284.660156 94.757812 279.925781 C 96.453125 275.195312 98.261719 270.503906 100.183594 265.859375 C 102.109375 261.214844 104.144531 256.621094 106.292969 252.078125 C 108.441406 247.53125 110.703125 243.042969 113.074219 238.609375 C 115.441406 234.175781 117.917969 229.804688 120.503906 225.492188 C 123.089844 221.179688 125.777344 216.933594 128.570312 212.753906 C 131.363281 208.574219 134.257812 204.464844 137.25 200.425781 C 140.246094 196.390625 143.339844 192.429688 146.527344 188.542969 C 149.714844 184.65625 153 180.851562 156.375 177.125 C 159.75 173.402344 163.214844 169.761719 166.769531 166.207031 C 170.328125 162.652344 173.964844 159.1875 177.691406 155.808594 C 181.414062 152.433594 185.222656 149.152344 189.105469 145.960938 C 192.992188 142.773438 196.957031 139.679688 200.992188 136.6875 C 205.03125 133.691406 209.140625 130.796875 213.320312 128.003906 C 217.5 125.210938 221.746094 122.523438 226.058594 119.9375 C 230.371094 117.355469 234.742188 114.875 239.175781 112.507812 C 243.609375 110.136719 248.097656 107.878906 252.644531 105.726562 C 257.1875 103.578125 261.78125 101.542969 266.425781 99.617188 C 271.070312 97.695312 275.761719 95.886719 280.492188 94.191406 C 285.226562 92.5 290 90.921875 294.808594 89.460938 C 299.621094 88.003906 304.464844 86.664062 309.339844 85.441406 C 314.214844 84.21875 319.121094 83.117188 324.050781 82.136719 C 328.980469 81.15625 333.933594 80.296875 338.90625 79.5625 C 343.878906 78.824219 348.867188 78.207031 353.871094 77.714844 C 358.871094 77.222656 363.882812 76.851562 368.90625 76.605469 C 373.925781 76.359375 378.949219 76.234375 383.976562 76.234375 C 389.003906 76.234375 394.027344 76.359375 399.050781 76.605469 C 404.070312 76.851562 409.082031 77.222656 414.085938 77.714844 C 419.089844 78.207031 424.078125 78.824219 429.050781 79.5625 C 434.023438 80.296875 438.972656 81.15625 443.90625 82.136719 C 448.835938 83.117188 453.738281 84.21875 458.617188 85.441406 C 463.492188 86.664062 468.335938 88.003906 473.144531 89.460938 C 477.957031 90.921875 482.730469 92.5 487.460938 94.191406 C 492.195312 95.886719 496.882812 97.695312 501.527344 99.617188 C 506.171875 101.542969 510.769531 103.578125 515.3125 105.726562 C 519.855469 107.878906 524.347656 110.136719 528.78125 112.507812 C 533.214844 114.875 537.585938 117.355469 541.898438 119.9375 C 546.210938 122.523438 550.457031 125.210938 554.636719 128.003906 C 558.816406 130.796875 562.925781 133.691406 566.960938 136.6875 C 571 139.679688 574.960938 142.773438 578.847656 145.960938 C 582.734375 149.152344 586.539062 152.433594 590.265625 155.808594 C 593.988281 159.183594 597.628906 162.652344 601.183594 166.207031 C 604.738281 169.761719 608.203125 173.398438 611.582031 177.125 C 614.957031 180.851562 618.238281 184.65625 621.429688 188.542969 C 624.617188 192.425781 627.710938 196.390625 630.703125 200.425781 C 633.699219 204.464844 636.59375 208.574219 639.386719 212.753906 C 642.179688 216.933594 644.867188 221.179688 647.453125 225.492188 C 650.035156 229.804688 652.511719 234.175781 654.882812 238.609375 C 657.253906 243.042969 659.511719 247.53125 661.660156 252.078125 C 663.8125 256.621094 665.847656 261.214844 667.773438 265.859375 C 669.695312 270.503906 671.503906 275.195312 673.199219 279.925781 C 674.890625 284.660156 676.46875 289.433594 677.925781 294.242188 C 679.386719 299.054688 680.726562 303.898438 681.949219 308.773438 C 683.167969 313.652344 684.269531 318.554688 685.25 323.484375 C 686.230469 328.414062 687.089844 333.367188 687.828125 338.339844 C 688.566406 343.3125 689.183594 348.300781 689.675781 353.304688 C 690.167969 358.308594 690.539062 363.320312 690.785156 368.339844 C 691.03125 373.359375 691.152344 378.386719 691.152344 383.414062 Z M 691.152344 383.414062 "/></g></g><g clip-rule="nonzero" clip-path="url(#a1a116b61b)"><g clip-rule="nonzero" clip-path="url(#d3edea9223)"><path style=" stroke:none;fill-rule:nonzero;fill:#0d1b27;fill-opacity:1;" d="M 353.105469 205.636719 C 346.167969 214.007812 342.703125 225.75 342.703125 240.859375 C 342.703125 251.964844 343.425781 270.261719 344.878906 295.746094 L 352.621094 426.546875 C 354.070312 443.476562 356.492188 456.132812 359.878906 464.503906 C 369.144531 481.566406 398.292969 480.753906 405.898438 463.960938 C 409.609375 455.402344 412.027344 443.113281 413.15625 427.09375 L 423.558594 292.472656 C 424.6875 280.09375 425.253906 267.894531 425.253906 255.878906 C 425.253906 235.488281 422.914062 219.925781 418.234375 209.183594 C 405.453125 187.648438 368.308594 187.863281 353.105469 205.636719 Z M 353.105469 506.601562 C 344.316406 514.859375 342.71875 525.109375 342.703125 535.273438 C 342.679688 546.011719 344.792969 559.429688 353.585938 565.585938 C 370.183594 577.203125 397.804688 576.980469 414.363281 565.3125 C 423.070312 559.179688 425.332031 545.925781 425.253906 535.273438 C 425.175781 525.050781 422.78125 512.40625 414.363281 506.601562 C 397.558594 495.003906 367.542969 492.164062 353.105469 506.601562 Z M 353.105469 506.601562 "/></g></g></g></svg>