<svg xmlns="http://www.w3.org/2000/svg" xmlns:xlink="http://www.w3.org/1999/xlink" width="1024" zoomAndPan="magnify" viewBox="0 0 768 767.999994" height="1024" preserveAspectRatio="xMidYMid meet" version="1.2"><defs><clipPath id="4f9d841579"><path d="M 124.558594 10.546875 L 651 10.546875 L 651 739.546875 L 124.558594 739.546875 Z M 124.558594 10.546875 "/></clipPath><clipPath id="4dc795b9fa"><path d="M 157.175781 55.738281 L 618.425781 55.738281 L 618.425781 694.738281 L 157.175781 694.738281 Z M 157.175781 55.738281 "/></clipPath><clipPath id="26aa9beb95"><path d="M 338.507812 233.511719 L 436.941406 233.511719 L 436.941406 495 L 338.507812 495 Z M 338.507812 233.511719 "/></clipPath><clipPath id="479ad7d0fe"><path d="M 350 532 L 426 532 L 426 607.011719 L 350 607.011719 Z M 350 532 "/></clipPath></defs><g id="4df0e11677"><rect x="0" width="768" y="0" height="767.999994" style="fill:#ffffff;fill-opacity:1;stroke:none;"/><rect x="0" width="768" y="0" height="767.999994" style="fill:#fff9c4;fill-opacity:1;stroke:none;"/><g clip-rule="nonzero" clip-path="url(#4f9d841579)"><path style=" stroke:none;fill-rule:nonzero;fill:#000000;fill-opacity:1;" d="M 650.503906 476.773438 C 650.503906 622.03125 532.769531 739.800781 387.476562 739.800781 C 242.183594 739.800781 124.414062 622.03125 124.414062 476.773438 C 124.414062 331.480469 387.476562 10.65625 387.476562 10.65625 C 387.476562 10.65625 650.503906 331.480469 650.503906 476.773438 "/></g><g clip-rule="nonzero" clip-path="url(#4dc795b9fa)"><path style=" stroke:none;fill-rule:nonzero;fill:#f2ff00;fill-opacity:1;" d="M 618.144531 464.359375 C 618.144531 591.671875 514.957031 694.890625 387.613281 694.890625 C 260.273438 694.890625 157.054688 591.671875 157.054688 464.359375 C 157.054688 337.019531 387.613281 55.832031 387.613281 55.832031 C 387.613281 55.832031 618.144531 337.019531 618.144531 464.359375 "/></g><g clip-rule="nonzero" clip-path="url(#26aa9beb95)"><path style=" stroke:none;fill-rule:nonzero;fill:#040606;fill-opacity:1;" d="M 387.65625 233.511719 C 357.980469 233.511719 334.984375 259.605469 338.972656 289.019531 L 366.519531 476.429688 C 367.917969 487.007812 376.988281 494.964844 387.722656 494.964844 C 398.425781 494.964844 407.496094 487.007812 408.957031 476.429688 L 436.507812 289.019531 C 440.328125 259.605469 417.367188 233.511719 387.65625 233.511719 "/></g><g clip-rule="nonzero" clip-path="url(#479ad7d0fe)"><path style=" stroke:none;fill-rule:nonzero;fill:#040606;fill-opacity:1;" d="M 387.65625 532.304688 C 366.953125 532.304688 350.238281 549.015625 350.238281 569.671875 C 350.238281 590.296875 366.953125 607.011719 387.65625 607.011719 C 408.359375 607.011719 425.078125 590.296875 425.078125 569.671875 C 425.078125 549.015625 408.359375 532.304688 387.65625 532.304688 "/></g></g></svg>