<svg xmlns="http://www.w3.org/2000/svg" xmlns:xlink="http://www.w3.org/1999/xlink" width="500" zoomAndPan="magnify" viewBox="0 0 375 374.999991" height="500" preserveAspectRatio="xMidYMid meet" version="1.0"><rect x="-37.5" width="450" fill="#ffffff" y="-37.499999" height="449.999989" fill-opacity="1"/><rect x="-37.5" width="450" fill="#dee3e8" y="-37.499999" height="449.999989" fill-opacity="1"/><path fill="#003680" d="M 94.726562 234.332031 C 85.441406 237.980469 68.414062 249.03125 62.964844 254.75 C 52.597656 265.644531 55.058594 281.839844 68.070312 288.273438 C 82.3125 295.324219 97.164062 285.710938 98.140625 268.46875 C 98.773438 257.183594 96.820312 246.050781 94.726562 234.332031 Z M 94.726562 234.332031 " fill-opacity="1" fill-rule="nonzero"/><path fill="#003680" d="M 174.382812 232.917969 C 162.390625 240.898438 150.882812 246.382812 141.949219 255.5625 C 135.984375 261.691406 134.738281 271.929688 138.691406 279.613281 C 142.492188 287.015625 151.683594 291.488281 160.554688 290.265625 C 168.628906 289.144531 175.253906 282.519531 176.902344 273.625 C 179.371094 260.351562 176.300781 247.464844 174.382812 232.929688 Z M 174.382812 232.917969 " fill-opacity="1" fill-rule="nonzero"/><path fill="#003680" d="M 254.261719 233.179688 C 242.566406 240.074219 232.140625 246.085938 223.125 254.148438 C 215.816406 260.679688 214.039062 269.765625 217.910156 278.472656 C 221.371094 286.261719 230.539062 291.417969 239.046875 290.359375 C 248.402344 289.203125 254.992188 282.96875 256.757812 273.058594 C 259.074219 260.066406 255.78125 247.417969 254.261719 233.167969 Z M 254.261719 233.179688 " fill-opacity="1" fill-rule="nonzero"/><path fill="#003680" d="M 209.496094 302.410156 C 200.117188 308.035156 190.738281 313.671875 182.609375 321.035156 C 174.453125 328.414062 174.042969 341.699219 181.421875 349.820312 C 187.433594 356.433594 195.929688 358.492188 204.261719 355.339844 C 213.277344 351.925781 217.769531 344.042969 217.792969 327.96875 C 217.160156 322.707031 215.980469 313.894531 215.085938 305.042969 C 214.640625 300.667969 212.875 300.382812 209.507812 302.410156 Z M 209.496094 302.410156 " fill-opacity="1" fill-rule="nonzero"/><path fill="#003680" d="M 130.3125 302.101562 C 119.945312 308.363281 109.246094 314.246094 101.105469 323.484375 C 95.574219 329.769531 95.195312 337.207031 98.410156 344.5625 C 101.492188 351.609375 106.894531 356.046875 115.015625 356.503906 C 129.535156 357.328125 138.066406 347.84375 138.089844 328.261719 C 137.347656 322.109375 136.3125 313.539062 135.3125 304.972656 C 134.925781 301.703125 133.714844 300.042969 130.300781 302.101562 Z M 130.3125 302.101562 " fill-opacity="1" fill-rule="nonzero"/><path fill="#003680" d="M 271.65625 137.800781 C 267.289062 137.28125 266.019531 135.199219 264.652344 131.691406 C 254.332031 105.285156 235.691406 92.988281 207.746094 94.484375 C 202.261719 94.777344 199.105469 93.480469 195.613281 88.917969 C 180.253906 68.792969 160.261719 57.554688 134.195312 60.96875 C 105.882812 64.675781 87.820312 81.324219 78.015625 107.53125 C 76.558594 111.453125 75.226562 113.582031 70.390625 113.839844 C 38.546875 115.523438 17.777344 139.269531 18.742188 172.351562 C 19.589844 201.699219 43.464844 224.246094 73.839844 224.28125 C 105.648438 224.328125 137.445312 224.28125 169.253906 224.28125 C 201.636719 224.28125 234.023438 224.410156 266.40625 224.234375 C 289 224.117188 307.453125 207.007812 308.722656 185.472656 C 310.277344 159.300781 296.003906 140.683594 271.65625 137.800781 Z M 271.65625 137.800781 " fill-opacity="1" fill-rule="nonzero"/><path fill="#003680" d="M 351.828125 122.03125 C 349.453125 100.273438 337.980469 83.75 317.351562 76.113281 C 309.03125 73.03125 306.042969 68.640625 303.324219 61.261719 C 290.929688 27.59375 247.320312 15.660156 220.195312 38.066406 C 213.640625 43.480469 210.308594 52.320312 203.8125 56.695312 C 197.367188 61.050781 187.632812 56.132812 177.960938 59.601562 C 187.398438 65.488281 194.613281 71.699219 200.4375 79.242188 C 203.238281 82.878906 206.097656 84.054688 210.59375 83.984375 C 239.011719 83.539062 258.699219 97.320312 271.289062 122.160156 C 272.597656 124.75 273.386719 127.183594 276.855469 127.996094 C 302.253906 133.953125 315.253906 150.992188 318.585938 176.035156 C 319.328125 181.601562 321.164062 181.433594 324.929688 178.988281 C 345.664062 165.546875 354.464844 146.15625 351.816406 122.019531 Z M 351.828125 122.03125 " fill-opacity="1" fill-rule="nonzero"/></svg>