<svg xmlns="http://www.w3.org/2000/svg" xmlns:xlink="http://www.w3.org/1999/xlink" width="1024" zoomAndPan="magnify" viewBox="0 0 768 767.999994" height="1024" preserveAspectRatio="xMidYMid meet" version="1.2"><defs><clipPath id="9b8e899e1f"><path d="M 22 55 L 746 55 L 746 690.980469 L 22 690.980469 Z M 22 55 "/></clipPath></defs><g id="a82744fee2"><rect x="0" width="768" y="0" height="767.999994" style="fill:#ffffff;fill-opacity:1;stroke:none;"/><rect x="0" width="768" y="0" height="767.999994" style="fill:#ffe0b2;fill-opacity:1;stroke:none;"/><g clip-rule="nonzero" clip-path="url(#9b8e899e1f)"><path style=" stroke:none;fill-rule:evenodd;fill:#ff8b05;fill-opacity:1;" d="M 385.03125 55.097656 L 386.347656 56.414062 L 392.9375 56.414062 L 395.570312 57.730469 L 396.886719 57.730469 L 399.523438 59.050781 L 402.160156 60.367188 L 404.792969 61.683594 L 407.429688 63 L 408.746094 65.636719 L 410.066406 66.953125 L 412.699219 68.273438 L 414.019531 70.90625 L 415.335938 72.226562 L 417.972656 74.859375 L 579.058594 354.207031 L 738.496094 631.910156 L 739.816406 634.542969 L 742.449219 639.816406 L 743.769531 642.449219 L 743.769531 649.039062 L 745.085938 651.675781 L 743.769531 655.628906 L 743.769531 660.898438 L 742.449219 663.53125 L 741.132812 666.167969 L 741.132812 668.804688 L 739.816406 670.121094 L 738.496094 671.4375 L 737.179688 674.074219 L 733.226562 678.027344 L 731.910156 680.664062 L 730.589844 681.980469 L 727.957031 683.300781 L 722.683594 685.933594 L 721.367188 687.253906 L 718.730469 688.570312 L 716.097656 688.570312 L 713.460938 689.886719 L 708.191406 689.886719 L 705.554688 691.207031 L 383.710938 691.207031 L 63.1875 689.886719 L 53.960938 689.886719 L 51.328125 688.570312 L 48.691406 688.570312 L 46.054688 687.253906 L 44.738281 685.933594 L 42.101562 684.617188 L 39.46875 683.300781 L 36.832031 681.980469 L 34.195312 679.347656 L 32.878906 678.027344 L 31.5625 675.394531 L 30.242188 674.074219 L 28.925781 671.441406 L 27.609375 670.121094 L 26.292969 668.804688 L 26.292969 666.167969 L 24.972656 664.851562 L 24.972656 662.214844 L 23.65625 660.898438 L 23.65625 655.628906 L 22.339844 651.675781 L 23.65625 649.039062 L 23.65625 642.449219 L 26.292969 637.179688 L 26.292969 634.542969 L 28.925781 631.910156 L 188.367188 354.207031 L 349.453125 76.179688 L 350.769531 73.542969 L 353.40625 70.90625 L 354.722656 68.273438 L 356.039062 66.953125 L 358.675781 64.320312 L 359.992188 63 L 362.628906 61.683594 L 363.945312 60.367188 L 367.898438 59.050781 L 370.535156 57.730469 L 373.171875 57.730469 L 375.804688 56.414062 L 382.394531 56.414062 L 385.027344 55.097656 "/></g><path style=" stroke:none;fill-rule:evenodd;fill:#1f1a17;fill-opacity:1;" d="M 387.664062 74.863281 L 388.984375 76.179688 L 391.617188 77.496094 L 394.253906 78.8125 L 395.570312 78.8125 L 396.886719 81.449219 L 398.207031 82.765625 L 400.839844 85.402344 L 721.367188 641.132812 L 722.683594 642.453125 L 724.003906 643.769531 L 724.003906 646.40625 L 725.320312 647.722656 L 725.320312 652.992188 L 724.003906 656.945312 L 722.683594 659.582031 L 721.367188 662.214844 L 718.730469 664.851562 L 716.097656 667.488281 L 710.824219 670.121094 L 706.871094 671.441406 L 59.234375 671.441406 L 57.914062 670.121094 L 55.28125 670.121094 L 53.960938 668.804688 L 52.644531 668.804688 L 51.328125 667.488281 L 48.691406 666.167969 L 46.054688 663.535156 L 44.738281 659.582031 L 43.421875 656.945312 L 42.101562 652.992188 L 42.101562 650.355469 L 43.421875 646.402344 L 44.738281 643.769531 L 44.738281 641.132812 L 46.054688 641.132812 L 366.582031 85.402344 L 366.582031 84.085938 L 367.898438 82.765625 L 369.21875 81.449219 L 371.851562 78.8125 L 373.171875 77.496094 L 374.488281 77.496094 L 375.804688 76.179688 L 379.757812 76.179688 L 381.078125 74.863281 Z M 658.117188 624.003906 L 109.304688 624.003906 L 383.710938 148.652344 L 658.117188 624.003906 "/><path style=" stroke:none;fill-rule:evenodd;fill:#1f1a17;fill-opacity:1;" d="M 338.910156 281.738281 L 340.226562 279.101562 L 340.226562 275.148438 L 341.546875 272.511719 L 341.546875 268.558594 L 342.863281 267.242188 L 342.863281 265.925781 L 346.816406 259.335938 L 349.453125 254.066406 L 354.722656 250.113281 L 358.675781 246.160156 L 365.265625 243.523438 L 370.535156 240.890625 L 377.125 239.570312 L 382.394531 239.570312 L 388.984375 240.890625 L 394.253906 242.207031 L 400.839844 243.523438 L 404.792969 247.476562 L 410.066406 250.113281 L 414.019531 254.066406 L 417.972656 259.335938 L 420.605469 263.289062 L 420.605469 265.925781 L 421.925781 267.242188 L 423.242188 269.878906 L 423.242188 272.511719 L 424.558594 275.148438 L 424.558594 281.738281 L 408.746094 455.339844 L 407.429688 460.613281 L 406.113281 464.566406 L 402.160156 468.519531 L 399.523438 472.472656 L 395.570312 475.105469 L 391.617188 476.425781 L 387.664062 477.742188 L 378.441406 477.742188 L 373.171875 476.425781 L 369.21875 475.105469 L 361.3125 469.835938 L 358.675781 465.882812 L 356.039062 460.613281 L 354.722656 455.339844 Z M 382.394531 504.09375 L 391.617188 505.414062 L 399.523438 508.046875 L 406.113281 512 L 412.699219 517.273438 L 417.972656 523.859375 L 421.925781 530.449219 L 424.558594 538.355469 L 425.878906 547.578125 L 424.558594 555.484375 L 421.925781 563.390625 L 417.972656 571.296875 L 412.699219 577.886719 L 406.113281 583.15625 L 399.523438 587.109375 L 391.617188 589.746094 L 374.488281 589.746094 L 366.582031 587.109375 L 358.675781 583.15625 L 352.085938 577.886719 L 346.816406 571.296875 L 342.863281 563.390625 L 340.226562 555.484375 L 340.226562 538.355469 L 342.863281 530.449219 L 346.816406 523.859375 L 352.085938 517.273438 L 358.675781 512 L 366.582031 508.046875 L 374.488281 505.414062 L 382.394531 504.09375 "/></g></svg>