<svg xmlns="http://www.w3.org/2000/svg" xmlns:xlink="http://www.w3.org/1999/xlink" width="500" zoomAndPan="magnify" viewBox="0 0 375 374.999991" height="500" preserveAspectRatio="xMidYMid meet" version="1.0"><rect x="-37.5" width="450" fill="#ffffff" y="-37.499999" height="449.999989" fill-opacity="1"/><rect x="-37.5" width="450" fill="#dee3e8" y="-37.499999" height="449.999989" fill-opacity="1"/><path fill="#003680" d="M 219.527344 144.6875 C 131.421875 108.5625 75.074219 237.175781 159.355469 290.304688 C 105.351562 267.273438 88.832031 186.382812 142.734375 147.695312 C 73.34375 149.464844 51.199219 234.964844 72.679688 289.230469 C 15.457031 181.054688 127.722656 76.464844 243.300781 150.21875 C 221.351562 119.570312 185.445312 99.59375 144.871094 99.59375 C 94.382812 99.59375 51.121094 130.519531 32.992188 174.460938 C 33.511719 168.40625 34.382812 162.347656 35.636719 156.289062 C 37.089844 149.25 39.058594 142.230469 41.546875 135.273438 C 70.398438 54.65625 159.144531 12.6875 239.769531 41.542969 C 320.386719 70.394531 362.355469 159.140625 333.5 239.761719 C 329.613281 250.625 324.636719 260.785156 318.746094 270.160156 C 227.144531 300.773438 171.816406 257.460938 171.816406 257.460938 C 208.539062 310.386719 291.164062 288.941406 309.101562 283.796875 C 260.503906 307.304688 177.414062 301.277344 155.308594 243.816406 C 136.558594 195.066406 169.207031 131.394531 219.53125 144.683594 Z M 342.71875 243.0625 C 373.394531 157.347656 328.777344 62.996094 243.058594 32.320312 C 157.34375 1.644531 62.992188 46.261719 32.316406 131.976562 C 1.640625 217.695312 46.257812 312.046875 131.972656 342.722656 C 217.691406 373.398438 312.042969 328.78125 342.71875 243.0625 Z M 342.71875 243.0625 " fill-opacity="1" fill-rule="evenodd"/></svg>