<svg xmlns="http://www.w3.org/2000/svg" xmlns:xlink="http://www.w3.org/1999/xlink" width="1024" zoomAndPan="magnify" viewBox="0 0 768 767.999994" height="1024" preserveAspectRatio="xMidYMid meet" version="1.0"><defs><clipPath id="5809305310"><path d="M 22 27.34375 L 748.742188 27.34375 L 748.742188 754.09375 L 22 754.09375 Z M 22 27.34375 " clip-rule="nonzero"/></clipPath><clipPath id="99f3f929e6"><path d="M 114 451 L 657 451 L 657 754.09375 L 114 754.09375 Z M 114 451 " clip-rule="nonzero"/></clipPath></defs><rect x="-76.8" width="921.6" fill="#ffffff" y="-76.799999" height="921.599993" fill-opacity="1"/><rect x="-76.8" width="921.6" fill="#ffffff" y="-76.799999" height="921.599993" fill-opacity="1"/><g clip-path="url(#5809305310)"><path fill="#b3b3b3" d="M 748.777344 390.734375 C 748.777344 483.703125 713.890625 568.488281 656.445312 632.75 C 589.914062 707.242188 493.136719 754.121094 385.390625 754.121094 C 277.644531 754.121094 180.835938 707.242188 114.335938 632.75 C 56.890625 568.488281 22.003906 483.703125 22.003906 390.734375 C 22.003906 190.054688 184.679688 27.347656 385.390625 27.347656 C 586.070312 27.347656 748.777344 190.054688 748.777344 390.734375 " fill-opacity="1" fill-rule="nonzero"/></g><path fill="#f2f2f2" d="M 385.390625 457.671875 C 451.25 457.671875 511.238281 383.15625 511.238281 301.339844 C 511.238281 224.035156 496.289062 147.589844 385.390625 147.589844 C 274.480469 147.589844 259.523438 224.035156 259.523438 301.339844 C 259.523438 383.15625 319.519531 457.671875 385.390625 457.671875 " fill-opacity="1" fill-rule="nonzero"/><g clip-path="url(#99f3f929e6)"><path fill="#f2f2f2" d="M 656.445312 632.75 C 589.914062 707.242188 493.136719 754.121094 385.390625 754.121094 C 277.644531 754.121094 180.835938 707.242188 114.335938 632.75 C 113.183594 587.871094 143.074219 483.882812 295.511719 451.875 C 321.585938 478.488281 353.683594 493.539062 385.390625 493.539062 C 417.09375 493.539062 449.164062 478.488281 475.238281 451.875 C 627.710938 483.882812 657.566406 587.871094 656.445312 632.75 " fill-opacity="1" fill-rule="nonzero"/></g></svg>