<svg xmlns="http://www.w3.org/2000/svg" xmlns:xlink="http://www.w3.org/1999/xlink" width="500" zoomAndPan="magnify" viewBox="0 0 375 374.999991" height="500" preserveAspectRatio="xMidYMid meet" version="1.0"><defs><clipPath id="02637ead51"><path d="M 9.347656 8.765625 L 367 8.765625 L 367 364.492188 L 9.347656 364.492188 Z M 9.347656 8.765625 " clip-rule="nonzero"/></clipPath><clipPath id="9732bf3a0d"><path d="M 65.597656 8.765625 L 310.566406 8.765625 C 341.632812 8.765625 366.816406 33.949219 366.816406 65.015625 L 366.816406 308.242188 C 366.816406 339.308594 341.632812 364.492188 310.566406 364.492188 L 65.597656 364.492188 C 34.53125 364.492188 9.347656 339.308594 9.347656 308.242188 L 9.347656 65.015625 C 9.347656 33.949219 34.53125 8.765625 65.597656 8.765625 Z M 65.597656 8.765625 " clip-rule="nonzero"/></clipPath><clipPath id="4d02431170"><path d="M 0.347656 0.765625 L 357.960938 0.765625 L 357.960938 356.492188 L 0.347656 356.492188 Z M 0.347656 0.765625 " clip-rule="nonzero"/></clipPath><clipPath id="ec2e6b29e8"><path d="M 56.597656 0.765625 L 301.566406 0.765625 C 332.632812 0.765625 357.816406 25.949219 357.816406 57.015625 L 357.816406 300.242188 C 357.816406 331.308594 332.632812 356.492188 301.566406 356.492188 L 56.597656 356.492188 C 25.53125 356.492188 0.347656 331.308594 0.347656 300.242188 L 0.347656 57.015625 C 0.347656 25.949219 25.53125 0.765625 56.597656 0.765625 Z M 56.597656 0.765625 " clip-rule="nonzero"/></clipPath><clipPath id="db29271997"><rect x="0" width="358" y="0" height="357"/></clipPath><clipPath id="e4667752b8"><path d="M 90 300 L 291 300 L 291 337.402344 L 90 337.402344 Z M 90 300 " clip-rule="nonzero"/></clipPath></defs><rect x="-37.5" width="450" fill="#ffffff" y="-37.499999" height="449.999989" fill-opacity="1"/><rect x="-37.5" width="450" fill="#fffac5" y="-37.499999" height="449.999989" fill-opacity="1"/><g clip-path="url(#02637ead51)"><g clip-path="url(#9732bf3a0d)"><g transform="matrix(1, 0, 0, 1, 9, 8)"><g clip-path="url(#db29271997)"><g clip-path="url(#4d02431170)"><g clip-path="url(#ec2e6b29e8)"><path fill="#fed70f" d="M 0.347656 0.765625 L 357.464844 0.765625 L 357.464844 356.492188 L 0.347656 356.492188 Z M 0.347656 0.765625 " fill-opacity="1" fill-rule="nonzero"/></g></g></g></g></g></g><path fill="#000000" d="M 190.4375 102.597656 L 85.96875 207.015625 L 81.691406 211.285156 C 81.597656 211.375 81.515625 211.460938 81.421875 211.554688 L 81.421875 238.429688 C 88.417969 240.066406 94.789062 243.878906 99.878906 249.605469 C 103.332031 253.507812 107.878906 255.414062 112.421875 255.414062 L 112.695312 255.414062 C 117.242188 255.414062 121.882812 253.507812 125.238281 249.605469 C 132.238281 241.792969 141.519531 237.523438 151.519531 237.523438 C 161.519531 237.523438 170.882812 241.792969 177.796875 249.605469 C 180.976562 253.238281 185.066406 255.238281 189.433594 255.507812 L 191.613281 255.507812 C 195.890625 255.238281 199.976562 253.238281 203.160156 249.605469 C 210.15625 241.792969 219.519531 237.523438 229.4375 237.523438 C 229.53125 237.523438 229.53125 237.523438 229.53125 237.523438 C 239.4375 237.523438 248.800781 241.792969 255.808594 249.605469 C 259.175781 253.414062 263.441406 255.507812 268.082031 255.59375 L 268.8125 255.59375 C 273.359375 255.5 277.71875 253.414062 281.085938 249.605469 C 286.269531 243.886719 292.632812 240.066406 299.636719 238.429688 L 299.636719 211.742188 C 299.460938 211.5625 299.367188 211.46875 299.179688 211.285156 L 295.089844 207.199219 Z M 190.4375 102.597656 " fill-opacity="1" fill-rule="nonzero"/><path fill="#000000" d="M 333.71875 267.757812 C 326.722656 259.945312 317.441406 255.675781 307.441406 255.675781 C 297.441406 255.675781 288.074219 259.945312 281.066406 267.757812 C 277.710938 271.660156 273.164062 273.835938 268.429688 273.835938 C 263.703125 273.835938 259.242188 271.660156 255.789062 267.757812 C 248.792969 259.945312 239.429688 255.675781 229.511719 255.675781 C 229.511719 255.675781 229.511719 255.675781 229.417969 255.675781 C 219.511719 255.675781 210.148438 259.945312 203.140625 267.757812 C 199.6875 271.660156 195.226562 273.835938 190.5 273.835938 C 185.777344 273.835938 181.230469 271.660156 177.769531 267.757812 C 170.855469 259.945312 161.492188 255.675781 151.492188 255.675781 C 141.488281 255.675781 132.21875 259.945312 125.210938 267.757812 C 118.296875 275.566406 106.753906 275.566406 99.839844 267.757812 C 92.925781 259.945312 83.5625 255.675781 73.5625 255.675781 C 63.5625 255.675781 54.292969 259.945312 47.285156 267.757812 C 43.917969 271.472656 44.28125 277.285156 48.105469 280.554688 C 51.832031 283.917969 57.566406 283.554688 60.925781 279.824219 C 67.835938 272.015625 79.382812 272.015625 86.292969 279.824219 C 93.238281 287.636719 102.601562 292 112.601562 292 C 122.601562 292 131.871094 287.644531 138.878906 279.835938 C 145.792969 272.023438 157.335938 272.023438 164.25 279.835938 C 171.164062 287.644531 180.527344 292 190.53125 292 C 200.53125 292 209.894531 287.644531 216.808594 279.835938 C 223.722656 272.023438 235.265625 272.023438 242.179688 279.835938 C 249.09375 287.644531 258.457031 292 268.457031 292 C 278.457031 292 287.824219 287.644531 294.734375 279.835938 C 298.195312 275.929688 302.734375 273.847656 307.46875 273.847656 C 312.191406 273.847656 316.65625 275.941406 320.105469 279.835938 C 323.476562 283.554688 329.199219 283.917969 332.921875 280.5625 C 336.722656 277.285156 336.992188 271.566406 333.71875 267.757812 Z M 333.71875 267.757812 " fill-opacity="1" fill-rule="nonzero"/><g clip-path="url(#e4667752b8)"><path fill="#000000" d="M 275.53125 313.148438 C 272.347656 317.054688 268.074219 319.230469 263.621094 319.230469 C 259.253906 319.230469 254.984375 317.054688 251.804688 313.148438 C 245.257812 305.339844 236.445312 300.984375 227.070312 300.984375 C 217.707031 301.078125 208.976562 305.347656 202.429688 313.148438 C 199.15625 317.054688 194.972656 319.230469 190.519531 319.230469 C 186.066406 319.230469 181.886719 317.054688 178.609375 313.148438 C 172.0625 305.339844 163.335938 300.984375 153.96875 300.984375 C 144.511719 300.984375 135.785156 305.347656 129.234375 313.148438 C 122.78125 320.960938 111.964844 320.960938 105.417969 313.148438 C 102.328125 309.421875 96.960938 309.066406 93.414062 312.421875 C 89.867188 315.691406 89.597656 321.5 92.683594 325.21875 C 98.773438 332.488281 106.773438 336.746094 115.417969 337.296875 C 115.6875 337.390625 115.960938 337.390625 116.324219 337.296875 C 116.691406 337.390625 116.960938 337.390625 117.324219 337.390625 C 117.691406 337.390625 117.960938 337.390625 118.328125 337.296875 C 118.785156 337.390625 119.140625 337.296875 119.503906 337.296875 C 128.054688 336.664062 136.054688 332.394531 142.050781 325.21875 C 148.507812 317.410156 159.332031 317.410156 165.871094 325.21875 C 171.867188 332.488281 179.96875 336.664062 188.601562 337.203125 C 188.78125 337.296875 188.96875 337.296875 189.238281 337.296875 L 189.507812 337.296875 C 189.875 337.390625 190.144531 337.390625 190.511719 337.390625 C 190.875 337.390625 191.148438 337.390625 191.511719 337.296875 C 191.960938 337.390625 192.324219 337.296875 192.691406 337.203125 C 201.242188 336.570312 209.144531 332.394531 215.144531 325.21875 C 221.691406 317.410156 232.503906 317.410156 238.960938 325.21875 C 245.050781 332.488281 253.050781 336.664062 261.695312 337.203125 C 261.878906 337.296875 262.058594 337.296875 262.328125 337.296875 L 262.601562 337.296875 C 262.964844 337.390625 263.238281 337.390625 263.601562 337.390625 C 263.96875 337.390625 264.238281 337.390625 264.601562 337.296875 C 264.96875 337.390625 265.417969 337.296875 265.78125 337.296875 C 274.417969 336.664062 282.332031 332.394531 288.328125 325.21875 C 291.425781 321.5 291.144531 315.691406 287.597656 312.421875 C 284.082031 309.066406 278.710938 309.429688 275.53125 313.148438 Z M 275.53125 313.148438 " fill-opacity="1" fill-rule="nonzero"/></g><path fill="#000000" d="M 131.425781 85.351562 L 135.96875 80.8125 L 135.96875 74.09375 C 135.96875 69.105469 131.882812 65.015625 126.878906 65.015625 L 108.691406 65.015625 C 103.6875 65.015625 99.597656 69.097656 99.597656 74.09375 L 99.597656 117.21875 L 104.144531 112.679688 Z M 131.425781 85.351562 " fill-opacity="1" fill-rule="nonzero"/><path fill="#000000" d="M 75.238281 204.835938 L 85.96875 194.121094 L 190.4375 89.800781 L 295.082031 194.394531 L 304.175781 203.472656 L 305.539062 204.835938 C 312.539062 211.742188 323.8125 211.742188 330.726562 204.835938 C 337.722656 197.847656 337.722656 186.59375 330.726562 179.6875 L 206.339844 55.382812 C 205.527344 54.019531 204.609375 52.664062 203.429688 51.476562 C 198.152344 46.207031 190.332031 44.9375 183.792969 47.75 C 181.519531 48.65625 179.425781 49.925781 177.515625 51.75 C 176.878906 52.476562 176.246094 53.289062 175.703125 54.019531 L 140.515625 89.15625 L 99.691406 129.933594 L 96.050781 133.566406 L 49.960938 179.59375 C 43.046875 186.582031 43.046875 197.839844 49.960938 204.835938 C 56.957031 211.730469 68.230469 211.730469 75.238281 204.835938 Z M 75.238281 204.835938 " fill-opacity="1" fill-rule="nonzero"/></svg>